<svg width="150" height="150" viewBox="0 0 150 150" fill="none" xmlns="http://www.w3.org/2000/svg">
<path fill-rule="evenodd" clip-rule="evenodd" d="M75 0C33.5786 0 0 33.5786 0 75C0 116.421 33.5786 150 75 150H150V75C150 33.5786 116.421 0 75 0ZM51.5679 117.512C59.2239 121.56 67.7599 123.584 77.1759 123.584C85.1839 123.584 92.4439 122.176 98.9559 119.36C105.468 116.544 110.924 112.452 115.324 107.084L101.596 94.412C95.348 101.716 87.604 105.368 78.364 105.368C72.644 105.368 67.54 104.136 63.052 101.672C58.564 99.12 55.0439 95.6 52.492 91.112C50.028 86.624 48.796 81.52 48.796 75.8C48.796 70.08 50.028 64.976 52.492 60.488C55.0439 56 58.564 52.524 63.052 50.06C67.54 47.508 72.644 46.232 78.364 46.232C87.604 46.232 95.348 49.84 101.596 57.056L115.324 44.384C110.924 39.104 105.468 35.056 98.9559 32.24C92.532 29.424 85.316 28.016 77.308 28.016C67.804 28.016 59.2239 30.084 51.5679 34.22C44 38.268 38.0159 43.944 33.616 51.248C29.3039 58.464 27.1479 66.648 27.1479 75.8C27.1479 84.952 29.3039 93.18 33.616 100.484C38.0159 107.7 44 113.376 51.5679 117.512Z" fill="#1877F2"/>
</svg>
